<svg width="200" height="200" viewBox="0 0 200 200" fill="none" xmlns="http://www.w3.org/2000/svg">
<rect width="200" height="200" rx="32" fill="black"/>
<path d="M118.721 152C112.407 152 106.092 151.158 99.778 149.474C93.4637 147.79 87.6427 145.017 82.315 141.154C77.086 137.291 72.8929 132.19 69.7357 125.851C66.5786 119.413 65 111.539 65 102.229V48H134.852V64.3429H82.167V102.08C82.167 108.716 83.203 114.213 85.2748 118.571C87.4454 122.83 90.3066 126.198 93.8584 128.674C97.4101 131.15 101.307 132.933 105.55 134.023C109.891 135.112 114.281 135.806 118.721 136.103V108.469H135V152H118.721Z" fill="white"/>
</svg>
