<svg width="200" height="200" viewBox="0 0 200 200" fill="none" xmlns="http://www.w3.org/2000/svg">
<rect width="200" height="200" fill="black"/>
<path d="M80.1044 127.21V134.259H78.5379V127.21C78.5379 124.912 78.5901 122.771 78.6945 120.787C78.9034 118.698 79.6345 116.818 80.8877 115.147L99.6867 89.4558L80.8877 64.0777C79.7389 62.4067 79.0601 60.5791 78.8512 58.5948C78.6423 56.5061 78.5379 54.3129 78.5379 52.0153V49.6655H80.1044V52.0153C80.1044 54.2085 80.2089 56.2972 80.4178 58.2815C80.6266 60.2658 81.2533 61.989 82.2976 63.4511L101.097 88.8292H119.739L137.911 63.4511C138.956 61.989 139.582 60.2658 139.791 58.2815C140 56.2972 140.104 54.2085 140.104 52.0153V49.6655H141.671V52.0153C141.671 54.3129 141.567 56.5061 141.358 58.5948C141.149 60.5791 140.47 62.4067 139.321 64.0777L120.836 89.7691L139.321 115.147C140.47 116.818 141.149 118.698 141.358 120.787C141.567 122.771 141.671 124.912 141.671 127.21V134.259H140.104V127.21C140.104 125.016 140 122.928 139.791 120.943C139.582 118.959 138.956 117.236 137.911 115.774L119.582 90.3958H100.783L82.2976 115.774C81.2533 117.132 80.6266 118.855 80.4178 120.943C80.2089 122.928 80.1044 125.016 80.1044 127.21ZM96.8668 142.718V127.21C96.8668 126.165 96.9191 125.069 97.0235 123.92C97.1279 122.771 97.5457 121.675 98.2768 120.63L105.326 110.761C105.953 109.821 106.527 109.142 107.05 108.724C107.572 108.307 108.251 108.098 109.086 108.098H111.279C112.115 108.098 112.794 108.307 113.316 108.724C113.838 109.142 114.413 109.821 115.039 110.761L121.932 120.63C122.663 121.675 123.081 122.771 123.185 123.92C123.29 125.069 123.342 126.165 123.342 127.21V142.718C123.342 144.703 123.76 146.165 124.595 147.105C125.535 147.94 126.997 148.358 128.982 148.358H152.794C154.778 148.358 156.188 147.94 157.023 147.105C157.963 146.165 158.433 144.703 158.433 142.718V125.956C158.433 121.152 158.016 117.549 157.18 115.147C156.449 112.745 154.882 109.925 152.48 106.688L139.791 89.7691L152.48 72.5371C154.778 69.2996 156.345 66.4798 157.18 64.0777C158.016 61.6757 158.433 58.0726 158.433 53.2685V41.2061C158.433 39.2218 157.963 37.8119 157.023 36.9764C156.188 36.0365 154.778 35.5665 152.794 35.5665H128.982C126.997 35.5665 125.535 36.0365 124.595 36.9764C123.76 37.8119 123.342 39.2218 123.342 41.2061V52.0153C123.342 53.0597 123.29 54.1563 123.185 55.3051C123.081 56.4539 122.663 57.5505 121.932 58.5948L114.882 68.4641C114.256 69.2996 113.681 69.9784 113.159 70.5006C112.637 70.9183 111.958 71.1272 111.123 71.1272H109.243C108.407 71.1272 107.676 70.9183 107.05 70.5006C106.527 69.9784 106.005 69.2996 105.483 68.4641L98.5901 58.5948C97.859 57.5505 97.4413 56.4539 97.3368 55.3051C97.2324 54.1563 97.1802 53.0597 97.1802 52.0153V41.2061C97.1802 39.2218 96.7102 37.8119 95.7702 36.9764C94.9347 36.0365 93.5248 35.5665 91.5405 35.5665H67.4151C65.4308 35.5665 63.9687 36.0365 63.0287 36.9764C62.1932 37.8119 61.7755 39.2218 61.7755 41.2061V53.2685C61.7755 58.0726 62.141 61.6757 62.8721 64.0777C63.7076 66.4798 65.3264 69.2996 67.7285 72.5371L80.4178 89.6125L67.7285 106.688C65.4308 109.925 63.8642 112.745 63.0287 115.147C62.1932 117.549 61.7755 121.152 61.7755 125.956V142.718C61.7755 144.703 62.1932 146.165 63.0287 147.105C63.9687 147.94 65.4308 148.358 67.4151 148.358H91.2271C93.2115 148.358 94.6214 147.94 95.4569 147.105C96.3969 146.165 96.8668 144.703 96.8668 142.718ZM96.2402 148.515L75.8747 165.433C75.4569 165.851 74.7781 166.217 73.8381 166.53C73.0026 166.843 72.0627 167 71.0183 167H47.2063C44.6997 167 42.8721 166.426 41.7232 165.277C40.5744 164.128 40 162.3 40 159.794V143.032C40 137.914 40.4178 134.102 41.2533 131.596C42.0888 129.09 43.7598 126.165 46.2663 122.823L58.329 106.688L46.2663 90.5524C43.7598 87.2104 42.0888 84.2862 41.2533 81.7797C40.4178 79.2733 40 75.4613 40 70.3439V58.2815C40 56.9238 40.1567 55.775 40.47 54.8351C40.8877 53.8952 41.4621 53.1119 42.1932 52.4853L62.4021 35.4099C62.9243 34.9921 63.6031 34.6788 64.4386 34.47C65.3786 34.1567 66.3708 34 67.4151 34H91.5405C94.047 34 95.8747 34.5744 97.0235 35.7232C98.1723 36.872 98.7467 38.6996 98.7467 41.2061V52.0153C98.7467 52.9552 98.7467 53.9474 98.7467 54.9918C98.8512 55.9317 99.2167 56.8194 99.8433 57.6549L101.567 60.1614V58.2815C101.567 56.9238 101.723 55.775 102.037 54.8351C102.454 53.8952 103.029 53.1119 103.76 52.4853L123.969 35.4099C124.491 34.9921 125.17 34.6788 126.005 34.47C126.945 34.1567 127.937 34 128.982 34H152.794C155.3 34 157.128 34.5744 158.277 35.7232C159.426 36.872 160 38.6996 160 41.2061V53.2685C160 58.3859 159.582 62.1979 158.747 64.7044C157.911 67.2108 156.24 70.1351 153.734 73.477L141.671 89.7691L153.734 105.748C156.24 109.09 157.911 112.014 158.747 114.521C159.582 117.027 160 120.839 160 125.956V142.718C160 144.076 159.791 145.225 159.373 146.165C159.06 147.105 158.538 147.888 157.807 148.515L137.441 165.433C137.023 165.851 136.345 166.217 135.405 166.53C134.569 166.843 133.629 167 132.585 167H108.773C106.266 167 104.439 166.426 103.29 165.277C102.141 164.128 101.567 162.3 101.567 159.794V144.285C101.567 143.345 101.514 142.405 101.41 141.465C101.41 140.525 101.097 139.585 100.47 138.645L98.4334 135.826V142.718C98.4334 144.076 98.2245 145.225 97.8068 146.165C97.4935 147.105 96.9713 147.888 96.2402 148.515Z" fill="white"/>
</svg>
