<svg width="200" height="200" viewBox="0 0 200 200" fill="none" xmlns="http://www.w3.org/2000/svg">
<rect width="200" height="200" rx="32" fill="black"/>
<path d="M169.781 126.153C169.781 126.987 169.632 127.76 169.335 128.474C169.037 129.188 168.621 129.813 168.085 130.349C167.579 130.854 166.97 131.256 166.255 131.554C165.541 131.851 164.768 132 163.935 132H122.071C121 132 119.84 131.881 118.59 131.643C117.37 131.375 116.15 130.974 114.93 130.438C113.74 129.902 112.595 129.218 111.494 128.385C110.393 127.522 109.411 126.496 108.548 125.305C107.715 124.086 107.046 122.687 106.54 121.11C106.034 119.503 105.781 117.703 105.781 115.71V84.2901C105.781 83.219 105.9 82.0735 106.138 80.8536C106.406 79.6039 106.808 78.384 107.343 77.1939C107.879 75.974 108.578 74.8136 109.441 73.7127C110.304 72.6118 111.33 71.6448 112.52 70.8117C113.74 69.9489 115.139 69.2645 116.716 68.7587C118.293 68.2529 120.078 68 122.071 68H169.246V79.6039H122.071C120.554 79.6039 119.394 80.0056 118.59 80.8089C117.787 81.6123 117.385 82.8024 117.385 84.3794V115.71C117.385 117.198 117.787 118.358 118.59 119.191C119.423 119.994 120.584 120.396 122.071 120.396H158.177V105.847H127.293V94.1534H163.935C164.768 94.1534 165.541 94.3171 166.255 94.6444C166.97 94.9419 167.579 95.3584 168.085 95.894C168.621 96.4296 169.037 97.0544 169.335 97.7685C169.632 98.4528 169.781 99.1967 169.781 100V126.153Z" fill="white"/>
<path d="M65.258 90.8508L84.8061 68H100.65L73.113 100.089L100.471 132H84.7169L65.258 109.328L45.8884 132H30.0893L57.4031 100.089L30 68H45.7099L65.258 90.8508Z" fill="white"/>
</svg>
